HIERARCHY
ROOT Hips
{
 OFFSET 0.000000 0.000000 0.000000
 CHANNELS 6 Xposition Yposition Zposition Yrotation Xrotation Zrotation
 JOINT Chest
 {
  OFFSET 0.000000 10.080317 -0.001081
  CHANNELS 3 Yrotation Xrotation Zrotation
  JOINT Chest2
  {
   OFFSET 0.000000 11.096852 0.001963
   CHANNELS 3 Yrotation Xrotation Zrotation
   JOINT Chest3
   {
    OFFSET 0.000000 10.026525 0.000000
    CHANNELS 3 Yrotation Xrotation Zrotation
    JOINT Chest4
    {
     OFFSET 0.000000 10.026525 0.000000
     CHANNELS 3 Yrotation Xrotation Zrotation
     JOINT Neck
     {
      OFFSET 0.000000 14.108171 0.000000
      CHANNELS 3 Yrotation Xrotation Zrotation
      JOINT Head
      {
       OFFSET 0.000000 9.333493 0.004668
       CHANNELS 3 Yrotation Xrotation Zrotation
       End Site
       {
        OFFSET 0.000000 17.851786 0.002438
       }
      }
     }
     JOINT RightCollar
     {
      OFFSET -3.071622 7.873185 0.000000
      CHANNELS 3 Yrotation Xrotation Zrotation
      JOINT RightShoulder
      {
       OFFSET -14.378659 0.000000 0.000000
       CHANNELS 3 Yrotation Xrotation Zrotation
       JOINT RightElbow
       {
        OFFSET -30.778728 0.000000 0.000000
        CHANNELS 3 Yrotation Xrotation Zrotation
        JOINT RightWrist
        {
         OFFSET -25.164217 0.000000 0.000000
         CHANNELS 3 Yrotation Xrotation Zrotation
         End Site
         {
          OFFSET -18.796788 0.000000 0.000000
         }
        }
       }
      }
     }
     JOINT LeftCollar
     {
      OFFSET 3.071622 7.873185 0.000000
      CHANNELS 3 Yrotation Xrotation Zrotation
      JOINT LeftShoulder
      {
       OFFSET 14.378659 0.000000 0.000000
       CHANNELS 3 Yrotation Xrotation Zrotation
       JOINT LeftElbow
       {
        OFFSET 30.778728 0.000000 0.000000
        CHANNELS 3 Yrotation Xrotation Zrotation
        JOINT LeftWrist
        {
         OFFSET 25.164217 0.000000 0.000000
         CHANNELS 3 Yrotation Xrotation Zrotation
         End Site
         {
          OFFSET 18.796788 0.000000 0.000000
         }
        }
       }
      }
     }
    }
   }
  }
 }
 JOINT RightHip
 {
  OFFSET -8.194923 0.005295 0.000540
  CHANNELS 3 Yrotation Xrotation Zrotation
  JOINT RightKnee
  {
   OFFSET 0.000000 -42.473320 -0.000511
   CHANNELS 3 Yrotation Xrotation Zrotation
   JOINT RightAnkle
   {
    OFFSET 0.000000 -41.474259 -0.000865
    CHANNELS 3 Yrotation Xrotation Zrotation
    JOINT RightToe
    {
     OFFSET 0.000000 -7.354994 16.712725
     CHANNELS 3 Yrotation Xrotation Zrotation
     End Site
     {
      OFFSET 0.000000 -1.553903 6.764158
     }
    }
   }
  }
 }
 JOINT LeftHip
 {
  OFFSET 8.194923 0.005295 0.000540
  CHANNELS 3 Yrotation Xrotation Zrotation
  JOINT LeftKnee
  {
   OFFSET 0.000000 -42.473320 -0.000511
   CHANNELS 3 Yrotation Xrotation Zrotation
   JOINT LeftAnkle
   {
    OFFSET 0.000000 -41.474259 -0.000865
    CHANNELS 3 Yrotation Xrotation Zrotation
    JOINT LeftToe
    {
     OFFSET 0.000000 -7.354994 16.712725
     CHANNELS 3 Yrotation Xrotation Zrotation
     End Site
     {
      OFFSET 0.000000 -1.553903 6.764158
     }
    }
   }
  }
 }
}
MOTION
Frames: 13
Frame Time: 0.016667
0.000000 91.111157 0.000000 0.000000 -5.826342 0.000000 0.000000 11.116423 0.000000 0.000000 -5.290081 0.000000 0.000000 0.000000 0.000000 0.000000 0.000000 0.000000 0.000000 12.665069 0.000000 0.000000 0.575450 0.000000 0.000000 0.000000 0.000000 0.000000 0.000000 0.000000 2.337306 0.000000 0.000000 -2.337306 0.000000 0.000000 0.000000 0.000000 0.000000 0.000000 0.000000 0.000000 -2.337306 0.000000 0.000000 2.337306 0.000000 0.000000 0.000000 8.578828 0.000000 0.000000 1.905768 0.000000 0.000000 -4.658254 0.000000 0.000000 0.000000 0.000000 0.000000 8.578828 0.000000 0.000000 1.905768 0.000000 0.000000 -4.658254 0.000000 0.000000 0.000000 0.000000
-346.453566 92.901450 -74.320866 -175.467819 -4.965399 0.289479 2.777333 2.990823 -0.959103 1.241510 1.323838 -0.439089 1.241510 1.323838 -0.439089 0.932043 0.991992 -0.331994 5.806013 25.024458 2.702754 9.741403 10.269921 3.441625 -6.152525 0.148673 11.873937 3.172209 -0.677232 72.640491 12.897832 17.776446 8.244912 -2.757490 0.564787 -4.939128 -6.204506 1.166839 -5.320131 -6.714427 -9.936148 -70.937427 -8.646635 21.323642 -12.825373 3.910256 4.159834 14.258030 -3.827610 7.718669 -0.234220 -3.711193 3.599639 0.260400 -12.070140 -5.831311 1.263679 0.006251 0.159071 -0.105660 2.720137 6.279198 1.612245 1.893765 5.395453 -1.016558 1.508869 -6.020162 0.703708 -0.021625 -0.035108 -0.021803
-346.496387 92.897976 -74.315002 -175.612799 -4.976624 0.283253 2.709358 2.932809 -0.944320 1.212856 1.297729 -0.432452 1.212856 1.297729 -0.432452 0.910522 0.972444 -0.326902 5.728665 24.888864 2.636169 9.618458 10.020688 3.333027 -6.186234 0.130337 11.841101 3.105270 -0.660950 72.603317 13.001027 17.828191 8.334077 -2.796599 0.632999 -4.886743 -6.243520 1.154957 -5.333931 -6.726172 -9.888561 -70.935686 -8.692709 21.432406 -12.865084 3.977941 4.179343 14.250387 -3.598580 7.677453 -0.217166 -3.636763 3.674888 0.234083 -12.277332 -5.876015 1.438086 0.007328 0.156654 -0.180607 2.789194 6.237037 1.609117 1.930026 5.529603 -1.047273 1.536318 -6.090459 0.756516 -0.026955 -0.036731 -0.028631
-346.546213 92.895635 -74.311789 -175.747933 -4.988104 0.285611 2.655412 2.877037 -0.944185 1.190093 1.273578 -0.431360 1.190093 1.273578 -0.431360 0.893433 0.954349 -0.325989 5.662304 24.771078 2.601298 9.507655 9.802874 3.279726 -6.234440 0.114454 11.826055 3.030179 -0.662506 72.573297 13.111510 17.863908 8.439438 -2.853157 0.691200 -4.833302 -6.287300 1.150596 -5.335575 -6.777625 -9.853787 -70.890969 -8.754167 21.550818 -12.917774 4.030505 4.201688 14.269570 -3.371981 7.630205 -0.221102 -3.607002 3.761504 0.219567 -12.479544 -5.923727 1.632778 0.009710 0.154628 -0.254262 2.883423 6.191646 1.600137 1.968195 5.675344 -1.091158 1.543216 -6.165752 0.830347 -0.029606 -0.040054 -0.039165
-346.599778 92.894450 -74.317721 -175.889554 -4.996081 0.298555 2.615360 2.822980 -0.942524 1.173791 1.249999 -0.431149 1.173791 1.249999 -0.431149 0.881191 0.936676 -0.325752 5.607635 24.669616 2.576731 9.415383 9.614975 3.243134 -6.272070 0.113753 11.813962 2.969985 -0.634092 72.545919 13.204023 17.848378 8.519906 -2.887643 0.707240 -4.796053 -6.324004 1.154170 -5.353615 -6.811118 -9.845206 -70.828510 -8.801252 21.721810 -12.985018 4.075547 4.239389 14.292848 -3.196517 7.598274 -0.252826 -3.570360 3.823446 0.219952 -12.618344 -5.962128 1.785640 0.011471 0.149090 -0.286599 2.964876 6.162447 1.570648 2.015753 5.796141 -1.126206 1.619674 -6.218570 0.896587 -0.029383 -0.057008 -0.048493
-346.663942 92.894725 -74.331663 -176.038276 -5.014916 0.310749 2.597378 2.771469 -0.945652 1.164510 1.227917 -0.431401 1.164510 1.227917 -0.431401 0.874217 0.920120 -0.325880 5.567633 24.592621 2.567182 9.345795 9.471912 3.231361 -6.313053 0.125976 11.811818 2.920494 -0.620143 72.522273 13.283989 17.860956 8.608205 -2.905378 0.722012 -4.793918 -6.340697 1.155865 -5.373485 -6.857504 -9.820583 -70.771143 -8.840508 21.882016 -13.012606 4.108713 4.278330 14.291950 -3.075564 7.586810 -0.298999 -3.545679 3.877109 0.213053 -12.634575 -5.987509 1.892185 0.016251 0.133359 -0.271134 3.081815 6.172155 1.558629 2.057470 5.869426 -1.173479 1.567227 -6.255490 0.968568 -0.032643 -0.067886 -0.049836
-346.731227 92.894998 -74.359765 -176.180124 -5.033753 0.329447 2.591480 2.734265 -0.943299 1.161915 1.210778 -0.430580 1.161915 1.210778 -0.430580 0.872257 0.907269 -0.325227 5.528001 24.527338 2.556749 9.277133 9.350626 3.218655 -6.357726 0.137859 11.801147 2.889101 -0.598153 72.526319 13.318344 17.855753 8.647797 -2.899325 0.712623 -4.797195 -6.369907 1.154297 -5.380766 -6.858328 -9.832472 -70.735461 -8.852301 22.004185 -13.034408 4.155859 4.285030 14.283164 -3.069327 7.592569 -0.356782 -3.476667 3.914045 0.188684 -12.561210 -6.006844 1.951127 0.020230 0.113570 -0.218712 3.150359 6.202046 1.524857 2.118724 5.924050 -1.222489 1.566434 -6.290227 1.045426 -0.032232 -0.079888 -0.050265
-346.806966 92.897527 -74.390462 -176.318294 -5.058976 0.361361 2.588640 2.698220 -0.952650 1.159959 1.196375 -0.432022 1.159959 1.196375 -0.432022 0.870784 0.896466 -0.326277 5.500519 24.476289 2.543206 9.231074 9.256142 3.198265 -6.381912 0.149304 11.807052 2.895271 -0.561781 72.524300 13.328797 17.806020 8.665675 -2.879457 0.693275 -4.810009 -6.378607 1.147886 -5.386774 -6.817173 -9.821943 -70.714112 -8.854939 22.061809 -13.035431 4.193160 4.282422 14.298219 -3.049372 7.613219 -0.436320 -3.439257 3.937089 0.177506 -12.478091 -6.022139 1.965172 0.025088 0.094481 -0.143599 3.196360 6.233787 1.480118 2.149915 5.993122 -1.279763 1.579303 -6.335204 1.122130 -0.033260 -0.089546 -0.048160
-346.880704 92.897883 -74.428317 -176.444538 -5.072372 0.390007 2.591324 2.663272 -0.944601 1.162286 1.180196 -0.431876 1.162286 1.180196 -0.431876 0.872519 0.884330 -0.326142 5.453837 24.439606 2.521953 9.152555 9.188331 3.169628 -6.414759 0.183671 11.812366 2.910112 -0.516019 72.496575 13.358430 17.730966 8.689295 -2.883035 0.665030 -4.827936 -6.378847 1.152146 -5.386834 -6.771048 -9.807462 -70.725004 -8.836387 22.066712 -13.007166 4.199589 4.275248 14.323700 -3.048391 7.652617 -0.518944 -3.381478 3.920080 0.182321 -12.416413 -6.048055 1.958509 0.026194 0.095380 -0.074263 3.200782 6.245069 1.426689 2.184279 6.085226 -1.341522 1.641455 -6.390689 1.212587 -0.033094 -0.102793 -0.052840
-346.965318 92.897981 -74.467081 -176.541504 -5.083563 0.423794 2.591852 2.625210 -0.944073 1.163903 1.164315 -0.432191 1.163903 1.164315 -0.432191 0.873722 0.872418 -0.326351 5.397465 24.414888 2.497654 9.057454 9.142678 3.138625 -6.446700 0.205883 11.807581 2.866626 -0.485875 72.484546 13.392693 17.694480 8.712430 -2.898014 0.642772 -4.825034 -6.375628 1.156506 -5.384253 -6.740203 -9.778458 -70.739786 -8.825427 22.080447 -12.981419 4.187061 4.258911 14.347546 -2.992231 7.709396 -0.606359 -3.310607 3.866137 0.197147 -12.470413 -6.046964 1.984839 0.026539 0.089356 -0.041776 3.201447 6.219100 1.375975 2.211937 6.244267 -1.421961 1.675735 -6.474552 1.327027 -0.036377 -0.118699 -0.064839
-347.058343 92.893313 -74.503473 -176.610867 -5.075157 0.447332 2.587881 2.592796 -0.934832 1.163507 1.149802 -0.429960 1.163507 1.149802 -0.429960 0.873411 0.861538 -0.324650 5.336441 24.384576 2.464176 8.956293 9.087037 3.092057 -6.480882 0.208021 11.786364 2.847574 -0.438439 72.462356 13.442842 17.616186 8.772176 -2.887487 0.646103 -4.856745 -6.374868 1.145402 -5.386355 -6.736912 -9.723703 -70.726771 -8.839560 22.097527 -13.001285 4.192590 4.251404 14.363184 -2.918739 7.752071 -0.704412 -3.289720 3.809091 0.243696 -12.507794 -6.057684 2.019957 0.027132 0.094492 -0.028656 3.176975 6.142426 1.323848 2.241475 6.457839 -1.499636 1.701825 -6.581755 1.451981 -0.040777 -0.133682 -0.077829
-347.160575 92.886731 -74.538302 -176.662301 -5.059834 0.460423 2.579973 2.562073 -0.916899 1.160175 1.136438 -0.424293 1.160175 1.136438 -0.424293 0.870893 0.851528 -0.320368 5.278310 24.354339 2.420171 8.862965 9.032123 3.025960 -6.498663 0.205458 11.749089 2.806668 -0.396785 72.452648 13.525740 17.593740 8.838681 -2.882574 0.665706 -4.876295 -6.343229 1.131699 -5.408745 -6.732920 -9.688948 -70.716253 -8.846233 22.169691 -13.030975 4.191557 4.262672 14.350889 -2.909672 7.777018 -0.805867 -3.218935 3.769963 0.278938 -12.527181 -6.058794 2.087926 0.023457 0.089129 -0.032073 3.141990 6.043797 1.301370 2.287152 6.697617 -1.615845 1.680546 -6.703510 1.596768 -0.040404 -0.144565 -0.085185
-347.283069 92.880207 -74.578931 -176.706484 -5.032800 0.466284 2.577493 2.547064 -0.901038 1.159240 1.128733 -0.415712 1.159240 1.128733 -0.415712 0.870170 0.845765 -0.313916 5.222424 24.314605 2.376408 8.773604 8.959600 2.959262 -6.522310 0.191540 11.725823 2.793623 -0.348961 72.429152 13.604242 17.588217 8.903559 -2.877341 0.678731 -4.898024 -6.316602 1.105742 -5.421635 -6.749346 -9.656864 -70.713115 -8.851709 22.233183 -13.067638 4.207309 4.265317 14.346118 -2.927084 7.774265 -0.903523 -3.195895 3.758864 0.299448 -12.490976 -6.045309 2.143088 0.017491 0.066101 -0.014238 3.169487 5.947266 1.270366 2.283432 6.921453 -1.720525 1.661498 -6.826758 1.742582 -0.041154 -0.152701 -0.084533
